<?xml version="1.0" encoding="UTF-8" standalone="no"?>
<!-- Created with Inkscape (http://www.inkscape.org/) -->
<svg
   xmlns:dc="http://purl.org/dc/elements/1.1/"
   xmlns:cc="http://web.resource.org/cc/"
   xmlns:rdf="http://www.w3.org/1999/02/22-rdf-syntax-ns#"
   xmlns:svg="http://www.w3.org/2000/svg"
   xmlns="http://www.w3.org/2000/svg"
   xmlns:xlink="http://www.w3.org/1999/xlink"
   xmlns:sodipodi="http://sodipodi.sourceforge.net/DTD/sodipodi-0.dtd"
   xmlns:inkscape="http://www.inkscape.org/namespaces/inkscape"
   version="1.0"
   width="696.64172"
   height="1129.1493"
   id="svg2"
   sodipodi:version="0.32"
   inkscape:version="0.45.1"
   sodipodi:docname="Saint George Ribbon.svg"
   inkscape:output_extension="org.inkscape.output.svg.inkscape"
   sodipodi:docbase="C:\DOCUME~1\Zachary\Desktop\Unsorted">
  <metadata
     id="metadata41">
    <rdf:RDF>
      <cc:Work
         rdf:about="">
        <dc:format>image/svg+xml</dc:format>
        <dc:type
           rdf:resource="http://purl.org/dc/dcmitype/StillImage" />
      </cc:Work>
    </rdf:RDF>
  </metadata>
  <sodipodi:namedview
     inkscape:window-height="712"
     inkscape:window-width="1024"
     inkscape:pageshadow="2"
     inkscape:pageopacity="0.0"
     guidetolerance="10.0"
     gridtolerance="10.0"
     objecttolerance="10.0"
     borderopacity="1.0"
     bordercolor="#666666"
     pagecolor="#ffffff"
     id="base"
     inkscape:zoom="0.4569812"
     inkscape:cx="348.32086"
     inkscape:cy="564.57465"
     inkscape:window-x="-4"
     inkscape:window-y="-4"
     inkscape:current-layer="svg2" />
  <defs
     id="defs4">
    <linearGradient
       id="linearGradient6104">
      <stop
         style="stop-color:#1e1e1e;stop-opacity:1"
         offset="0"
         id="stop6106" />
      <stop
         style="stop-color:#000000;stop-opacity:1"
         offset="1"
         id="stop6108" />
    </linearGradient>
    <linearGradient
       id="linearGradient3156">
      <stop
         style="stop-color:#d45500;stop-opacity:1;"
         offset="0"
         id="stop3158" />
      <stop
         style="stop-color:#ff6600;stop-opacity:1;"
         offset="1"
         id="stop3160" />
    </linearGradient>
    <linearGradient
       id="linearGradient3150">
      <stop
         style="stop-color:#aa0000;stop-opacity:1"
         offset="0"
         id="stop3152" />
      <stop
         style="stop-color:#e60000;stop-opacity:1"
         offset="1"
         id="stop3154" />
    </linearGradient>
    <linearGradient
       id="linearGradient6097">
      <stop
         style="stop-color:#009de1;stop-opacity:1"
         offset="0"
         id="stop6099" />
      <stop
         style="stop-color:#5dbdee;stop-opacity:1"
         offset="1"
         id="stop6101" />
    </linearGradient>
    <linearGradient
       id="linearGradient6081">
      <stop
         style="stop-color:#0081c6;stop-opacity:1"
         offset="0"
         id="stop6083" />
      <stop
         style="stop-color:#62baea;stop-opacity:1"
         offset="1"
         id="stop6085" />
    </linearGradient>
    <filter
       id="filter3411">
      <feGaussianBlur
         id="feGaussianBlur3413"
         stdDeviation="30.889208"
         inkscape:collect="always" />
    </filter>
    <filter
       x="-0.12210854"
       width="1.2442172"
       y="-0.030649563"
       height="1.0612991"
       id="filter3164">
      <feGaussianBlur
         inkscape:collect="always"
         stdDeviation="16.066872"
         id="feGaussianBlur3166" />
    </filter>
    <filter
       id="filter5108">
      <feGaussianBlur
         inkscape:collect="always"
         stdDeviation="17.989028"
         id="feGaussianBlur5110" />
    </filter>
    <linearGradient
       x1="752.50128"
       y1="828.07648"
       x2="104.03245"
       y2="105.23806"
       id="linearGradient6087"
       xlink:href="#linearGradient3156"
       gradientUnits="userSpaceOnUse"
       gradientTransform="translate(-72.865409,0.375702)" />
    <linearGradient
       x1="344.60135"
       y1="1046.6479"
       x2="243.26187"
       y2="38.252003"
       id="linearGradient6095"
       xlink:href="#linearGradient3156"
       gradientUnits="userSpaceOnUse"
       gradientTransform="translate(-72.865409,0.375702)" />
    <filter
       x="-0.090172201"
       width="1.1803443"
       y="-0.10263315"
       height="1.2052664"
       id="filter9066">
      <feGaussianBlur
         inkscape:collect="always"
         stdDeviation="8.024772"
         id="feGaussianBlur9068" />
    </filter>
    <linearGradient
       x1="663.6084"
       y1="762.4599"
       x2="32.142162"
       y2="175.09691"
       id="linearGradient6110"
       xlink:href="#linearGradient6104"
       gradientUnits="userSpaceOnUse"
       spreadMethod="reflect" />
    <linearGradient
       x1="219.58257"
       y1="986.08643"
       x2="213.01775"
       y2="56.384563"
       id="linearGradient6120"
       xlink:href="#linearGradient6104"
       gradientUnits="userSpaceOnUse" />
    <linearGradient
       inkscape:collect="always"
       xlink:href="#linearGradient6104"
       id="linearGradient3189"
       gradientUnits="userSpaceOnUse"
       x1="219.58257"
       y1="986.08643"
       x2="213.01775"
       y2="56.384563"
       gradientTransform="translate(2.5913719e-6,0)" />
    <linearGradient
       inkscape:collect="always"
       xlink:href="#linearGradient6104"
       id="linearGradient3193"
       gradientUnits="userSpaceOnUse"
       spreadMethod="reflect"
       x1="663.6084"
       y1="762.4599"
       x2="32.142162"
       y2="168.84625"
       gradientTransform="translate(3.8491241e-6,-2.9891716e-7)" />
    <linearGradient
       inkscape:collect="always"
       xlink:href="#linearGradient6104"
       id="linearGradient3197"
       gradientUnits="userSpaceOnUse"
       spreadMethod="reflect"
       x1="663.6084"
       y1="762.4599"
       x2="32.142162"
       y2="175.09691" />
  </defs>
  <path
     d="M 209.84498,99.421775 C 209.84498,99.421775 180.2475,53.2607 140.93998,24.191715 C 113.26587,18.01428 104.7521,21.870695 73.934973,44.016181 C 31.269173,74.676239 30.718596,86.539236 30.718596,95.110666 C 47.073576,158.46056 65.919781,172.1301 79.494751,181.73315 C 79.494751,181.73315 78.563161,181.30931 78.563161,181.30931 C 78.563161,181.30931 89.844986,105.13606 209.84498,99.421775 z "
     style="opacity:0.2;color:#000000;fill:#000000;fill-opacity:1;fill-rule:nonzero;stroke:#000000;stroke-width:1;stroke-linecap:butt;stroke-linejoin:miter;marker:none;marker-start:none;marker-mid:none;marker-end:none;stroke-miterlimit:4;stroke-dashoffset:0;stroke-opacity:1;visibility:visible;display:inline;overflow:visible;filter:url(#filter9066)"
     id="path6129" />
  <path
     d="M 129.83931,14.658889 C 142.86031,27.317249 184.94458,49.695029 180.95505,82.361677 C 285.25474,260.40859 206.52771,584.53919 140.30568,811.549 C 140.30568,811.549 114.64465,902.16035 121.26685,919.96504 C 127.88906,937.76972 124.72054,936.02558 176.04261,977.56986 C 221.517,1014.3805 276.5678,1084.9015 284.84556,1119.0272 L 349.87542,511.57628 C 349.87542,511.57628 352.14883,257.85944 350.49328,207.41281 C 348.83773,156.96619 332.28223,93.218125 247.84914,59.092472 C 208.27404,43.097241 158.13347,20.319221 129.83931,14.658889 z "
     style="opacity:0.39574465;color:#000000;fill:#000000;fill-opacity:1;fill-rule:nonzero;stroke:#000000;stroke-width:1.09709907;stroke-linecap:butt;stroke-linejoin:miter;marker:none;marker-start:none;marker-mid:none;marker-end:none;stroke-miterlimit:4;stroke-dasharray:none;stroke-dashoffset:0;stroke-opacity:1;visibility:visible;display:inline;overflow:visible;filter:url(#filter3164)"
     id="path2187" />
  <path
     d="M 209.84498,99.421775 C 209.84498,99.421775 204.30748,67.696689 164.99996,38.627704 C 137.32585,32.450269 112.23743,36.306684 81.420301,58.45217 C 38.754501,89.112228 37.134591,112.73788 37.134591,121.30931 C 53.489571,184.6592 65.919781,172.1301 79.494751,181.73315 C 79.494751,181.73315 78.563161,181.30931 78.563161,181.30931 C 78.563161,181.30931 89.844986,105.13606 209.84498,99.421775 z "
     style="color:#000000;fill:#d45500;fill-opacity:1;fill-rule:nonzero;stroke:none;stroke-width:1;stroke-linecap:butt;stroke-linejoin:miter;marker:none;marker-start:none;marker-mid:none;marker-end:none;stroke-miterlimit:4;stroke-dashoffset:0;stroke-opacity:1;visibility:visible;display:inline;overflow:visible"
     id="path2397" />
  <path
     sodipodi:nodetypes="ccccc"
     id="path2193"
     style="fill:#1a1a1a;fill-opacity:1;fill-rule:evenodd;stroke:#1a1a1a;stroke-width:0.99999976px;stroke-linecap:butt;stroke-linejoin:miter;stroke-opacity:1"
     d="M 182.19908,51.057235 C 155.67342,40.960429 68.021824,74.252875 41.206818,132.74807 L 46.663735,145.11393 C 47.669996,130.36568 122.46547,51.613578 191.28469,63.755865 L 182.19908,51.057235 z " />
  <path
     d="M 196.67941,78.557665 C 166.49074,69.621807 88.431384,100.78161 55.62417,156.94624 L 66.351339,169.75685 C 79.352429,132.98535 128.60831,91.919656 205.76502,88.461776 L 196.67941,78.557665 z "
     style="fill:#1a1a1a;fill-opacity:1;fill-rule:evenodd;stroke:#1a1a1a;stroke-width:0.99999976px;stroke-linecap:butt;stroke-linejoin:miter;stroke-opacity:1"
     id="path4151"
     sodipodi:nodetypes="ccccc" />
  <path
     d="M 164.99996,38.627704 C 176.23576,50.815529 189.36948,73.949197 201.52753,102.4463 C 275.92692,276.83013 187.13459,561.30931 129.99173,779.88074 C 129.99173,779.88074 107.84888,858.45217 113.56316,875.59503 C 119.27745,892.73788 138.56316,912.73788 182.84888,952.73788 C 222.08864,988.18023 265.70602,1014.1665 272.84888,1047.0236 L 332.84888,512.73788 C 332.84888,512.73788 339.99173,268.45217 338.56316,219.88074 C 337.13459,171.30931 322.84888,105.59502 249.99173,72.737884 C 215.84245,57.337226 189.41494,44.077631 164.99996,38.627704 z "
     style="color:#000000;fill:url(#linearGradient6095);fill-opacity:1;fill-rule:nonzero;stroke:none;stroke-width:1;stroke-linecap:butt;stroke-linejoin:miter;marker:none;marker-start:none;marker-mid:none;marker-end:none;stroke-miterlimit:4;stroke-dasharray:none;stroke-dashoffset:0;stroke-opacity:1;visibility:visible;display:inline;overflow:visible"
     id="path2399" />
  <path
     d="M 69.647841,151.4245 C 69.647841,151.4245 46.223361,118.76408 26.856664,85.316659 C 26.856664,94.760639 20.954428,197.07039 20.954428,197.07039 C 20.954428,197.07039 15.052201,269.47423 59.318941,326.13809 C 103.58567,382.80196 258.51926,595.29145 555.10641,807.78096 C 555.10641,807.78096 627.40876,862.87083 648.06657,864.44482 C 648.06657,864.44482 684.95552,699.17521 677.57773,639.36335 C 677.57773,639.36335 591.99537,606.30943 336.72384,393.81993 C 81.452311,181.33043 69.647841,151.4245 69.647841,151.4245 z "
     style="opacity:0.4;color:#000000;fill:#000000;fill-opacity:1;fill-rule:nonzero;stroke:#000000;stroke-width:1.06678772;stroke-linecap:butt;stroke-linejoin:miter;marker:none;marker-start:none;marker-mid:none;marker-end:none;stroke-miterlimit:4;stroke-dasharray:none;stroke-dashoffset:0;stroke-opacity:1;visibility:visible;display:inline;overflow:visible;filter:url(#filter5108)"
     id="path3168" />
  <path
     d="M 211.60122,56.384565 C 297.24094,226.03229 219.79084,565.56626 165.34057,787.0867 C 165.31373,787.10521 138.30395,891.91147 137.81774,906.57876 C 137.43056,910.11365 162.40226,941.38889 169.00696,935.30412 C 271.04474,444.57038 271.82119,363.92405 272.87517,275.07736 C 272.32389,91.069415 243.1168,71.132398 237.48093,68.093859 C 218.4711,57.844844 216.27236,56.781464 211.60122,56.384565 z "
     style="color:#000000;fill:url(#linearGradient6120);fill-opacity:1;fill-rule:nonzero;stroke:none;stroke-width:1;stroke-linecap:butt;stroke-linejoin:miter;marker:none;marker-start:none;marker-mid:none;marker-end:none;stroke-miterlimit:4;stroke-dasharray:none;stroke-dashoffset:0;stroke-opacity:1;visibility:visible;display:inline;overflow:visible"
     id="path6112"
     sodipodi:nodetypes="cccccsc" />
  <path
     id="path3187"
     style="color:#000000;fill:url(#linearGradient3189);fill-opacity:1;fill-rule:nonzero;stroke:none;stroke-width:1;stroke-linecap:butt;stroke-linejoin:miter;marker:none;marker-start:none;marker-mid:none;marker-end:none;stroke-miterlimit:4;stroke-dasharray:none;stroke-dashoffset:0;stroke-opacity:1;visibility:visible;display:inline;overflow:visible"
     d="M 267.1598,82.962219 C 319.46747,197.10501 298.72854,410.57681 241.57183,753.29417 C 236.1559,776.21237 221.56941,895.38978 207.73551,971.37843 C 205.9448,974.16537 243.51915,1004.604 245.04886,1004.4494 L 310.9636,488.71517 C 310.9636,488.71517 321.12189,314.75558 320.121,266.18415 C 319.1201,217.61272 319.91831,147.02025 287.63609,100.08761 C 279.80634,88.704535 271.99364,83.359118 267.1598,82.962219 z "
     sodipodi:nodetypes="cccccssc" />
  <path
     d="M 78.563161,181.30931 C 78.563161,181.30931 55.884591,151.66645 37.134591,121.30931 C 37.134591,129.88074 31.420301,222.73788 31.420301,222.73788 C 31.420301,222.73788 25.70602,288.45217 68.563161,339.88074 C 111.4203,391.30931 261.4203,584.16645 548.56316,777.0236 C 548.56316,777.0236 618.56316,827.0236 638.56316,828.45217 C 638.56316,828.45217 674.27745,678.45217 667.13459,624.16645 C 667.13459,624.16645 584.27745,594.16645 337.13459,401.30931 C 89.991731,208.45217 78.563161,181.30931 78.563161,181.30931 z "
     style="color:#000000;fill:url(#linearGradient6087);fill-opacity:1;fill-rule:nonzero;stroke:none;stroke-width:1;stroke-linecap:butt;stroke-linejoin:miter;marker:none;marker-start:none;marker-mid:none;marker-end:none;stroke-miterlimit:4;stroke-dasharray:none;stroke-dashoffset:0;stroke-opacity:1;visibility:visible;display:inline;overflow:visible"
     id="path2258" />
  <path
     d="M 34.274491,189.68177 C 34.274491,193.51208 31.699253,227.5666 31.699253,227.5666 C 51.395726,297.41449 161.59885,418.60927 338.36473,571.50208 C 401.67272,626.26002 606.51319,778.47892 643.79299,791.22026 C 643.79299,791.22026 648.40599,804.57563 654.39471,753.76961 C 656.2414,758.40317 384.85659,575.69968 255.50733,459.5263 C 157.01717,371.06862 38.481797,238.41405 34.274491,189.68177 z "
     style="color:#000000;fill:url(#linearGradient6110);fill-opacity:1;fill-rule:nonzero;stroke:none;stroke-width:1;stroke-linecap:butt;stroke-linejoin:miter;marker:none;marker-start:none;marker-mid:none;marker-end:none;stroke-miterlimit:4;stroke-dasharray:none;stroke-dashoffset:0;stroke-opacity:1;visibility:visible;display:inline;overflow:visible"
     id="path5122"
     sodipodi:nodetypes="ccsccsc" />
  <path
     sodipodi:nodetypes="ccsccsc"
     id="path3195"
     style="color:#000000;fill:url(#linearGradient3197);fill-opacity:1;fill-rule:nonzero;stroke:none;stroke-width:1;stroke-linecap:butt;stroke-linejoin:miter;marker:none;marker-start:none;marker-mid:none;marker-end:none;stroke-miterlimit:4;stroke-dasharray:none;stroke-dashoffset:0;stroke-opacity:1;visibility:visible;display:inline;overflow:visible"
     d="M 37.429815,142.49619 C 34.750381,146.3265 34.356711,167.01025 34.356711,167.01025 C 42.272534,214.37931 233.86077,421.67401 347.75484,500.3054 C 416.63723,547.86115 624.48575,701.25783 661.76555,713.99917 C 661.76555,713.99917 664.61437,685.12769 667.22523,669.54796 C 669.07192,674.18152 417.74121,519.25132 284.66056,407.3718 C 185.00156,323.5895 72.318375,227.62312 37.429815,142.49619 z " />
</svg>
